<svg width="568" height="187" viewBox="0 0 568 187" fill="none" xmlns="http://www.w3.org/2000/svg">
<path d="M0.640625 147.203H19.3438V40.0469H0.640625V0.390625H100.203V40.0469H81.5V147.203H100.203V187H0.640625V147.203ZM130.438 0.390625H196.531L246.594 83.3594L285.969 15.8594V109.797L241.109 187L130.438 0.390625ZM295.109 187V0.390625H357.266V187H295.109ZM130.297 187V17.6875L188.375 115.141V187H130.297ZM505.484 187V117.109H424.766L387.359 79.7031V37.6562L424.766 0.390625H445.859V66.625H531.641L567.781 104.031V149.734L530.516 187H505.484ZM455.703 34V0.390625H530.375L562.719 32.875V52.7031H505.484V34H455.703ZM387.359 131.031H449.516V153.25H495.641V187H418.719L387.359 149.734V131.031Z" fill="#08A0A5"/>
</svg>
